<svg xmlns="http://www.w3.org/2000/svg" version="1.1" xmlns:xlink="http://www.w3.org/1999/xlink" xmlns:svgjs="http://svgjs.dev/svgjs" viewBox="0 0 1920 1080" class="overflow-hidden rounded-md drop-shadow-lg transition duration-300" style="overflow: hidden; height: 85vh;"><rect width="1920" height="1080" fill="#e4c1f9"/><g clip-path="url(&quot;#SvgjsClipPath1825&quot;)"><g transform="matrix(-0.8679160172561876,-0.7544678833390834,0.7544678833390834,-0.8679160172561876,1330.4597046759955,1710.6167442073408)"><path d="M0,-1080C17.652330823748496,-987.4161752610464,114.63009767806916,-730.6645787096304,105.91398494249097,-524.4970515662785C97.19787220691278,-318.3295244229266,-41.230810336388856,-87.75301373047881,-52.29667641346913,157.00516286011117C-63.3625424905494,401.76333945070115,40.585664237688974,701.4810786889891,39.518788480009334,944.0520079772614C38.451912722329695,1186.6229372655337,-52.111466212878746,1409.7727399192886,-58.697930959546966,1612.430738589745C-65.2843957062152,1815.0887372602015,-9.782988493257827,2068.7384564316244,0,2160L 1920 2160 L 1920 -1080 Z" fill="url(&quot;#SvgjsLinearGradient1822&quot;)"/><path d="M640,-1080C657.3987395310588,-1006.1032309666582,745.7041261583105,-825.6894684877044,744.3924371863527,-636.6193857999489C743.0807482143949,-447.54930311219334,664.7733164077458,-133.67791236951965,632.1298661682533,54.42049612653324C599.4864159287608,242.51890462258612,530.9237590278842,307.4195022641318,548.5317357493979,491.97106517636837C566.1397124709115,676.522628088605,722.4872003164473,958.4449733078804,737.7777264973353,1161.729873599953C753.0682526782232,1365.0147738920255,656.5711805842814,1545.3021125287958,640.2748928347255,1711.6804669288035C623.9786050851696,1878.0588213288113,640.0458154724543,2085.2800778214673,640,2160L 1920 2160 L 1920 -1080 Z" fill="url(&quot;#SvgjsLinearGradient1823&quot;)"/><path d="M1280,-1080C1271.4061714761783,-949.0922180196594,1231.112656149548,-575.5209075358429,1228.4370288570706,-294.55330811795676C1225.7614015645931,-13.585708700070654,1274.2789588984404,323.9379554158825,1263.9462362451347,605.8055965073165C1253.6135135918291,887.6732375987506,1163.7650656447595,1137.6201378485334,1166.4406929372371,1396.6525384306474C1169.1163202297148,1655.6849390127613,1261.073448822873,2032.7754230717746,1280,2160L 1920 2160 L 1920 -1080 Z" fill="url(&quot;#SvgjsLinearGradient1824&quot;)"/></g></g><defs><linearGradient x1="0.1" y1="0" x2="0" y2="1" id="SvgjsLinearGradient1822"><stop stop-color="#e4c1f9" offset="0"/><stop stop-color="#dbc1f9" offset="0"/></linearGradient><linearGradient x1="0.1" y1="0" x2="0" y2="1" id="SvgjsLinearGradient1823"><stop stop-color="#f0dcfc" offset="0"/><stop stop-color="#ebdcfc" offset="0.3333333333333333"/></linearGradient><linearGradient x1="0.1" y1="0" x2="0" y2="1" id="SvgjsLinearGradient1824"><stop stop-color="#fcf8fe" offset="0"/><stop stop-color="#fbf8fe" offset="0.6666666666666666"/></linearGradient><clipPath id="SvgjsClipPath1825"><rect width="1920" height="1080"/></clipPath></defs></svg>